<mxfile host="Electron" agent="Mozilla/5.0 (Windows NT 10.0; Win64; x64) AppleWebKit/537.36 (KHTML, like Gecko) draw.io/26.2.2 Chrome/134.0.6998.178 Electron/35.1.2 Safari/537.36" version="26.2.2">
  <diagram name="Página-1" id="Z-S446NXWusGedHhaVUo">
    <mxGraphModel dx="1428" dy="841" grid="0" gridSize="10" guides="1" tooltips="1" connect="1" arrows="1" fold="1" page="1" pageScale="1" pageWidth="827" pageHeight="1169" math="0" shadow="0">
      <root>
        <mxCell id="0" />
        <mxCell id="1" parent="0" />
        <mxCell id="U1WqdWSbIBY_zaDZwv6L-7" value="" style="edgeStyle=orthogonalEdgeStyle;rounded=0;orthogonalLoop=1;jettySize=auto;html=1;" edge="1" parent="1" source="U1WqdWSbIBY_zaDZwv6L-1" target="U1WqdWSbIBY_zaDZwv6L-3">
          <mxGeometry relative="1" as="geometry" />
        </mxCell>
        <mxCell id="U1WqdWSbIBY_zaDZwv6L-8" value="" style="edgeStyle=orthogonalEdgeStyle;rounded=0;orthogonalLoop=1;jettySize=auto;html=1;" edge="1" parent="1" source="U1WqdWSbIBY_zaDZwv6L-1" target="U1WqdWSbIBY_zaDZwv6L-4">
          <mxGeometry relative="1" as="geometry" />
        </mxCell>
        <mxCell id="U1WqdWSbIBY_zaDZwv6L-1" value="Abrir Chrome con la url https://www.appinformatica.com" style="rounded=1;whiteSpace=wrap;html=1;" vertex="1" parent="1">
          <mxGeometry x="40" y="150" width="200" height="60" as="geometry" />
        </mxCell>
        <mxCell id="U1WqdWSbIBY_zaDZwv6L-6" value="" style="edgeStyle=orthogonalEdgeStyle;rounded=0;orthogonalLoop=1;jettySize=auto;html=1;" edge="1" parent="1" source="U1WqdWSbIBY_zaDZwv6L-2" target="U1WqdWSbIBY_zaDZwv6L-1">
          <mxGeometry relative="1" as="geometry" />
        </mxCell>
        <mxCell id="U1WqdWSbIBY_zaDZwv6L-2" value="INICIO" style="ellipse;whiteSpace=wrap;html=1;fillColor=#00FF00;" vertex="1" parent="1">
          <mxGeometry x="80" y="40" width="120" height="80" as="geometry" />
        </mxCell>
        <mxCell id="U1WqdWSbIBY_zaDZwv6L-3" value="System.Exception: Error técnico&amp;nbsp;&lt;div&gt;(SL-00)&lt;/div&gt;&lt;div&gt;Intentar 3 veces, en caso de que falle lanzar excepción&lt;/div&gt;" style="rounded=0;whiteSpace=wrap;html=1;" vertex="1" parent="1">
          <mxGeometry x="320" y="120" width="200" height="120" as="geometry" />
        </mxCell>
        <mxCell id="U1WqdWSbIBY_zaDZwv6L-9" value="" style="edgeStyle=orthogonalEdgeStyle;rounded=0;orthogonalLoop=1;jettySize=auto;html=1;" edge="1" parent="1" source="U1WqdWSbIBY_zaDZwv6L-4" target="U1WqdWSbIBY_zaDZwv6L-5">
          <mxGeometry relative="1" as="geometry" />
        </mxCell>
        <mxCell id="U1WqdWSbIBY_zaDZwv6L-4" value="Ordenar objetos en función del tipo usando una función diccionario" style="rounded=1;whiteSpace=wrap;html=1;" vertex="1" parent="1">
          <mxGeometry x="40" y="240" width="200" height="60" as="geometry" />
        </mxCell>
        <mxCell id="U1WqdWSbIBY_zaDZwv6L-11" value="" style="edgeStyle=orthogonalEdgeStyle;rounded=0;orthogonalLoop=1;jettySize=auto;html=1;" edge="1" parent="1" source="U1WqdWSbIBY_zaDZwv6L-5" target="U1WqdWSbIBY_zaDZwv6L-10">
          <mxGeometry relative="1" as="geometry" />
        </mxCell>
        <mxCell id="U1WqdWSbIBY_zaDZwv6L-16" value="" style="edgeStyle=orthogonalEdgeStyle;rounded=0;orthogonalLoop=1;jettySize=auto;html=1;" edge="1" parent="1" source="U1WqdWSbIBY_zaDZwv6L-5" target="U1WqdWSbIBY_zaDZwv6L-14">
          <mxGeometry relative="1" as="geometry" />
        </mxCell>
        <mxCell id="U1WqdWSbIBY_zaDZwv6L-5" value="¿Devuelve datos?" style="rhombus;whiteSpace=wrap;html=1;" vertex="1" parent="1">
          <mxGeometry x="60" y="330" width="160" height="80" as="geometry" />
        </mxCell>
        <mxCell id="U1WqdWSbIBY_zaDZwv6L-10" value="No devuelve elementos, lanzar excepción y finalizar proceso" style="rounded=0;whiteSpace=wrap;html=1;" vertex="1" parent="1">
          <mxGeometry x="320" y="340" width="200" height="60" as="geometry" />
        </mxCell>
        <mxCell id="U1WqdWSbIBY_zaDZwv6L-17" value="" style="edgeStyle=orthogonalEdgeStyle;rounded=0;orthogonalLoop=1;jettySize=auto;html=1;" edge="1" parent="1" source="U1WqdWSbIBY_zaDZwv6L-14" target="U1WqdWSbIBY_zaDZwv6L-15">
          <mxGeometry relative="1" as="geometry" />
        </mxCell>
        <mxCell id="U1WqdWSbIBY_zaDZwv6L-14" value="Extraer datos: Nombre, precio, tipo componente" style="rounded=1;whiteSpace=wrap;html=1;" vertex="1" parent="1">
          <mxGeometry x="80" y="440" width="120" height="60" as="geometry" />
        </mxCell>
        <mxCell id="U1WqdWSbIBY_zaDZwv6L-19" value="" style="edgeStyle=orthogonalEdgeStyle;rounded=0;orthogonalLoop=1;jettySize=auto;html=1;" edge="1" parent="1" source="U1WqdWSbIBY_zaDZwv6L-15" target="U1WqdWSbIBY_zaDZwv6L-18">
          <mxGeometry relative="1" as="geometry" />
        </mxCell>
        <mxCell id="U1WqdWSbIBY_zaDZwv6L-15" value="Obtener url de imagenes, despues en excel se insertaran como macros para ahorra de memoria" style="rounded=1;whiteSpace=wrap;html=1;" vertex="1" parent="1">
          <mxGeometry x="60" y="530" width="160" height="80" as="geometry" />
        </mxCell>
        <mxCell id="U1WqdWSbIBY_zaDZwv6L-21" value="" style="edgeStyle=orthogonalEdgeStyle;rounded=0;orthogonalLoop=1;jettySize=auto;html=1;" edge="1" parent="1" source="U1WqdWSbIBY_zaDZwv6L-18" target="U1WqdWSbIBY_zaDZwv6L-20">
          <mxGeometry relative="1" as="geometry" />
        </mxCell>
        <mxCell id="U1WqdWSbIBY_zaDZwv6L-18" value="Guiardar en excel y enviar correo con archivo adjunto" style="rounded=1;whiteSpace=wrap;html=1;" vertex="1" parent="1">
          <mxGeometry x="80" y="640" width="120" height="60" as="geometry" />
        </mxCell>
        <mxCell id="U1WqdWSbIBY_zaDZwv6L-20" value="FIN" style="ellipse;whiteSpace=wrap;html=1;strokeColor=#000000;fillColor=#FF0000;" vertex="1" parent="1">
          <mxGeometry x="80" y="730" width="120" height="80" as="geometry" />
        </mxCell>
      </root>
    </mxGraphModel>
  </diagram>
</mxfile>
